<svg width="72" height="68" viewBox="0 0 72 68" fill="none" xmlns="http://www.w3.org/2000/svg">
<path d="M22.2133 31.4453C22.8653 31.4953 24.1862 31.4552 24.8881 31.456C24.9326 35.6509 24.8916 39.9315 24.892 44.1347L24.8929 49.0097C24.893 49.544 24.9883 52.0183 24.7181 52.4121C24.4721 52.7709 23.4597 53.734 23.0931 54.1006L20.2299 56.9648L16.2513 60.9433C15.6114 61.583 14.7254 62.5202 14.0648 63.1025C14.2782 63.6986 14.3543 64.3292 14.2426 64.956C14.081 65.8429 13.5704 66.6288 12.8246 67.1357C12.0495 67.6668 11.1764 67.8302 10.2592 67.6601C10.2132 67.6514 10.1675 67.6412 10.1224 67.6289C9.22318 67.3959 8.46834 66.857 8.00232 66.0459C7.55086 65.2532 7.43614 64.3128 7.68201 63.4345C7.92854 62.5634 8.5139 61.8274 9.307 61.3916C10.2567 60.8669 11.1651 60.9091 12.1732 61.1963C14.1649 59.1412 16.2803 57.0857 18.306 55.0537C19.4118 53.9439 21.0812 52.1728 22.226 51.166C22.1655 50.362 22.1943 49.2725 22.1947 48.4541L22.1967 43.8388C22.1962 39.7564 22.1365 35.5157 22.2133 31.4453ZM28.973 31.4453C29.6292 31.495 30.9425 31.4553 31.6478 31.456C31.7201 38.2821 31.6526 45.2652 31.6517 52.1025L31.6498 57.9424C31.6492 58.9456 31.6165 60.2079 31.6683 61.1963C32.5227 61.6146 33.1439 62.2309 33.476 63.1377C33.7783 63.9606 33.7384 64.8708 33.3646 65.664C32.9466 66.5468 32.2564 67.1146 31.35 67.4414C30.5157 67.7169 29.6063 67.657 28.8158 67.2734C27.9997 66.8658 27.3807 66.1482 27.0961 65.2812C26.8132 64.4138 26.8905 63.4688 27.3099 62.6582C27.6552 61.9942 28.2495 61.4429 28.9711 61.2207C28.944 59.7919 28.9363 58.3257 28.9554 56.8974C29.0689 48.4343 28.8128 39.9043 28.973 31.4453ZM47.1068 31.4502C47.903 31.4857 48.9727 31.458 49.7885 31.4619C49.7705 32.2135 49.7793 33.0099 49.7875 33.7646C49.8484 39.4851 49.7004 45.238 49.7982 50.9551C50.3732 51.4682 51.1261 52.2649 51.6888 52.8281L55.2094 56.3506L58.2103 59.3496C58.7163 59.8555 59.4659 60.5638 59.9125 61.0928C63.3902 60.0168 66.0049 63.7048 63.5892 66.4804C63.304 66.7523 63.0559 66.9471 62.7015 67.1299C61.8915 67.5415 60.9505 67.6118 60.0883 67.3242C59.2414 67.0329 58.5433 66.419 58.1459 65.6162C57.7044 64.7236 57.7151 63.8063 58.0316 62.8789C57.4283 62.334 56.7594 61.6291 56.1771 61.0469L52.9193 57.7881L49.3851 54.2558C49.1116 53.9828 47.1877 52.1528 47.1488 51.8691C47.0741 51.3237 47.098 49.9892 47.098 49.3662L47.097 45.2646L47.1068 31.4502ZM40.4506 31.4443C41.0336 31.4965 42.4848 31.4561 43.1322 31.457C43.1742 33.9239 43.142 36.4838 43.142 38.9599V52.7939L43.14 58.0957C43.1395 59.0895 43.1156 60.2092 43.1576 61.1933C43.9217 61.5272 44.4942 62.0226 44.8578 62.7851C45.2316 63.562 45.2736 64.4575 44.973 65.2656C44.615 66.2442 43.9525 66.8434 43.0277 67.2705C42.2413 67.5608 41.358 67.5811 40.5726 67.2754C39.7263 66.9405 39.049 66.2818 38.6908 65.4453C38.3388 64.6018 38.3348 63.6526 38.681 62.8066C39.021 61.9874 39.6343 61.4171 40.4496 61.0879L40.4506 31.4443ZM15.5609 31.4492C16.3482 31.4865 17.4341 31.458 18.2426 31.4619C18.1809 34.9277 18.2389 38.6045 18.2396 42.083L18.2474 44.7558C18.2505 45.3481 18.2622 45.924 18.2113 46.5156C18.1822 46.8539 17.7935 47.4787 17.433 47.5088C16.3033 47.603 15.1237 47.5593 13.9857 47.5586L6.41052 47.5537C5.56072 49.6607 3.06691 50.1728 1.28845 48.8642C0.83142 48.4998 0.473327 48.0264 0.247435 47.4873C-0.0884594 46.6573 -0.0821478 45.7277 0.265013 44.9023C0.621588 44.0761 1.28908 43.4231 2.12341 43.0859C3.81022 42.4147 5.73806 43.141 6.40661 44.8681L15.5453 44.8633L15.5609 31.4492ZM53.7592 31.4453C54.407 31.4955 55.7349 31.4552 56.434 31.456L56.4457 44.9726C59.4475 44.9185 62.6561 44.9752 65.6722 44.9736C66.4245 43.318 68.1086 42.5579 69.8461 43.1289C70.6458 43.3871 71.3089 43.955 71.6879 44.7051C72.1216 45.583 72.0637 46.5542 71.7513 47.459C71.3898 48.2536 70.8758 48.8639 70.0746 49.247C69.2363 49.6444 68.2733 49.6876 67.4027 49.3662C66.4724 49.0203 65.9551 48.4257 65.5531 47.5508C64.7087 47.5828 63.8293 47.558 62.9818 47.5576C60.4966 47.5566 58.011 47.5642 55.5258 47.5586C55.071 47.5384 54.4262 47.5502 54.1097 47.1728C53.5798 46.5403 53.7336 45.2509 53.7367 44.4345L53.7435 41.3418C53.744 38.0783 53.6972 34.6952 53.7592 31.4453ZM39.3344 18.4941C40.7636 19.5123 43.059 20.6532 44.6342 21.3906C45.6983 21.8887 47.0608 22.1328 47.9681 22.8867C49.8629 24.461 50.4513 26.9955 50.7094 29.3086C47.3207 29.3567 43.823 29.3142 40.4261 29.3144L21.2797 29.3105C21.3191 29.1149 21.3455 28.9135 21.3773 28.7158C21.7656 26.3076 22.6391 23.5514 24.972 22.3613C25.3627 22.162 25.796 22.0143 26.2054 21.8554C26.691 21.6671 27.1676 21.4832 27.6429 21.2685C29.4069 20.4663 31.1132 19.5413 32.7474 18.5C32.9078 18.5521 33.4454 18.9575 33.639 19.0556C33.9637 19.2201 34.3759 19.3712 34.7269 19.457C36.5703 19.9072 37.8166 19.3894 39.3344 18.4941ZM16.2357 21.4053C17.0382 22.0998 19.6273 23.4298 20.6146 23.7822C19.7391 25.6611 19.3759 27.1522 19.1576 29.2002L12.9769 29.2021C9.53442 29.2031 6.00967 29.2392 2.57361 29.1894L2.76697 28.2676C3.08971 26.7643 3.73782 25.0348 5.19079 24.3301C5.862 24.0045 6.67417 23.7322 7.37536 23.4199C8.64669 22.8456 9.87292 22.176 11.0433 21.417C12.4671 22.5282 14.7878 22.4322 16.2357 21.4053ZM61.1478 21.417C62.362 22.1514 63.4787 22.8027 64.7758 23.4062C65.5602 23.7713 66.7188 24.0995 67.3959 24.5517C68.8825 25.5446 69.3123 27.5621 69.639 29.1933C68.4673 29.2225 67.21 29.2008 66.0316 29.2021L52.9535 29.2011C52.7128 27.3893 52.3896 25.4203 51.473 23.8017C53.0626 23.1485 54.5143 22.3006 55.9877 21.4297C56.0312 21.4357 56.0183 21.4302 56.0638 21.4638C57.4194 22.4707 59.8266 22.4672 61.1478 21.417ZM58.5101 7.11228C59.8948 7.11453 60.9194 7.09274 61.9886 8.15134C63.1522 9.30303 62.991 11.0449 62.972 12.5801C63.1037 12.6282 63.3508 12.7227 63.4701 12.7832C64.1542 13.1299 63.694 14.5087 63.4467 15.0058C63.2055 15.491 62.9762 15.7484 62.4769 15.9131C61.929 18.0099 61.0176 19.5761 58.8207 20.1758C58.305 20.2089 57.4572 19.9628 57.0209 19.6836C55.713 18.8475 55.0513 17.3796 54.7015 15.9355C53.6287 15.3919 53.2672 14.1535 53.6078 13.0263C53.6575 12.8634 54.2713 12.7929 54.2621 12.5644C54.1306 9.43937 55.0028 7.20937 58.5101 7.11228ZM13.4486 7.00291C14.8386 6.99954 15.88 7.16403 16.9515 8.19334C18.0785 9.27589 17.9239 11.1071 17.9056 12.5801C18.055 12.6359 18.2034 12.695 18.35 12.7578C19.1819 13.1224 18.5653 14.7807 18.1967 15.3164C17.9427 15.6851 17.8357 15.7734 17.4183 15.9101C16.9036 17.6945 15.936 19.6624 13.9799 20.1416C11.5078 20.4525 10.166 17.9848 9.63415 15.9541C8.65348 15.3831 8.184 14.2898 8.34704 13.1963C8.40401 12.8145 9.06165 12.856 9.08337 12.5586C9.18636 11.1024 8.94219 9.59972 10.0726 8.43943C11.019 7.4381 11.7657 7.0711 13.1527 7.00877C13.2512 7.00513 13.35 7.0028 13.4486 7.00291ZM35.1908 0.0419686C36.7648 -0.118908 38.3517 0.184827 39.7543 0.916969C41.2808 1.7281 42.1138 3.43937 42.0238 5.14255C42.0181 5.7938 41.8325 6.64425 41.9818 7.27634C42.1595 7.71845 43.0337 7.69752 43.0941 8.23923C43.2291 9.00952 42.709 10.8431 42.1185 11.3281C41.2644 12.0301 41.2009 12.0805 40.9066 13.2412C40.8351 13.5233 40.4888 14.2498 40.3207 14.5556C39.6286 15.8147 38.5934 17.032 37.1683 17.4531C36.9884 17.5087 36.7967 17.5422 36.6107 17.5625C33.8229 17.8666 31.9875 15.112 31.2924 12.7597C31.2002 12.448 31.0929 12.1461 30.976 11.8457C30.8074 11.7604 30.3431 11.5297 30.2211 11.4219C29.5724 10.8484 29.2916 9.58742 29.2318 8.76072C29.1183 7.19181 29.9155 7.89038 30.3783 7.14353C30.4297 7.05955 30.3888 6.27326 30.3695 6.07908C30.2211 4.57883 30.2243 3.09298 31.2963 1.88279C32.2904 0.760681 33.7006 0.153582 35.1908 0.0419686Z" fill="url(#paint0_linear_166_1442)"/>
<defs>
<linearGradient id="paint0_linear_166_1442" x1="-1.4929e-07" y1="9.46141" x2="72.9657" y2="56.7729" gradientUnits="userSpaceOnUse">
<stop stop-color="#0FBEE4"/>
<stop offset="0.293269" stop-color="#19CD62"/>
<stop offset="0.485577" stop-color="#89F7C2"/>
<stop offset="0.740385" stop-color="#19CD62"/>
<stop offset="0.913462" stop-color="#E0D330"/>
</linearGradient>
</defs>
</svg>
